<svg viewBox="0 0 203 131" fill="none" xmlns="http://www.w3.org/2000/svg">
<path d="M101.94 1C66.3357 1 37.4399 29.8957 37.4399 65.5C37.4399 101.104 66.3357 130 101.94 130C137.544 130 166.44 101.104 166.44 65.5C166.44 29.8957 137.544 1 101.94 1ZM101.94 123.767C70.3143 123.767 43.6733 97.5398 43.6733 65.5C43.6733 35.121 69.0764 7.23333 101.94 7.23333C134.813 7.23333 160.207 34.2836 160.207 65.5C160.207 96.7023 133.556 123.767 101.94 123.767Z" fill="#232323" stroke="#232323" stroke-width="2"/>
<path d="M134.96 37.4067H68.92C66.6179 37.4067 65.057 37.8193 64.2603 39.031C63.8815 39.607 63.7578 40.2527 63.711 40.838C63.6763 41.2714 63.6804 41.757 63.6842 42.2191C63.6854 42.3624 63.6866 42.5035 63.6866 42.64V57.0333C63.6866 57.1699 63.6854 57.3109 63.6842 57.4542C63.6804 57.9163 63.6763 58.402 63.711 58.8354C63.7578 59.4207 63.8815 60.0663 64.2603 60.6424C65.057 61.8541 66.618 62.2667 68.92 62.2667H134.96C137.262 62.2667 138.823 61.8541 139.62 60.6424C139.998 60.0663 140.122 59.4207 140.169 58.8354C140.204 58.402 140.2 57.9164 140.196 57.4543C140.194 57.3109 140.193 57.1699 140.193 57.0333V42.64C140.193 42.5035 140.194 42.3624 140.196 42.2191C140.2 41.757 140.204 41.2714 140.169 40.838C140.122 40.2527 139.998 39.607 139.62 39.031C138.823 37.8193 137.262 37.4067 134.96 37.4067ZM133.96 56.0333H69.92V43.64H133.96V56.0333Z" fill="#232323" stroke="#232323" stroke-width="2"/>
<path d="M177.14 32.4849V98.5249C177.14 100.827 177.553 102.388 178.764 103.185C179.34 103.563 179.986 103.687 180.571 103.734C181.005 103.769 181.49 103.764 181.952 103.761C182.096 103.759 182.237 103.758 182.373 103.758H196.767C196.903 103.758 197.044 103.759 197.188 103.761C197.65 103.764 198.135 103.769 198.569 103.734C199.154 103.687 199.8 103.563 200.376 103.185C201.587 102.388 202 100.827 202 98.5248V32.4849C202 30.1829 201.587 28.6219 200.376 27.8252C199.8 27.4464 199.154 27.3227 198.569 27.2759C198.135 27.2412 197.65 27.2453 197.188 27.2492C197.044 27.2504 196.903 27.2515 196.767 27.2515H182.373C182.237 27.2515 182.096 27.2504 181.952 27.2492C181.49 27.2453 181.005 27.2412 180.571 27.2759C179.986 27.3227 179.34 27.4464 178.764 27.8252C177.553 28.6219 177.14 30.1829 177.14 32.4849ZM195.767 33.4849V97.5249H183.373V33.4849H195.767Z" fill="#232323" stroke="#232323" stroke-width="2"/>
<path d="M1.88 32.4849L1.88 98.5249C1.88 100.827 2.2926 102.388 3.50431 103.185C4.08036 103.563 4.726 103.687 5.31133 103.734C5.74471 103.769 6.23032 103.764 6.69242 103.761C6.83574 103.759 6.9768 103.758 7.11334 103.758H21.5067C21.6432 103.758 21.7842 103.759 21.9275 103.761C22.3897 103.764 22.8753 103.769 23.3087 103.734C23.894 103.687 24.5397 103.563 25.1157 103.185C26.3274 102.388 26.74 100.827 26.74 98.5248L26.74 32.4849C26.74 30.1829 26.3274 28.6219 25.1157 27.8252C24.5397 27.4464 23.894 27.3227 23.3087 27.2759C22.8753 27.2412 22.3897 27.2453 21.9276 27.2492C21.7843 27.2504 21.6432 27.2515 21.5067 27.2515H7.11334C6.9768 27.2515 6.83574 27.2504 6.69241 27.2492C6.23031 27.2453 5.74471 27.2412 5.31133 27.2759C4.726 27.3227 4.08036 27.4464 3.50431 27.8252C2.2926 28.6219 1.88 30.1829 1.88 32.4849ZM20.5067 33.4849L20.5067 97.5249H8.11334L8.11334 33.4849H20.5067Z" fill="#232323" stroke="#232323" stroke-width="2"/>
<path d="M110.313 89.0533H103.727C102.658 89.0533 101.787 89.9244 101.787 90.9941V97.5793C101.787 98.649 102.658 99.52 103.727 99.52H110.313C111.382 99.52 112.253 98.649 112.253 97.5793V90.9941C112.253 89.9244 111.382 89.0533 110.313 89.0533Z" fill="#232323" stroke="#232323" stroke-width="2"/>
<path d="M91.686 89.0533H85.1008C84.0311 89.0533 83.16 89.9244 83.16 90.9941V97.5793C83.16 98.649 84.0311 99.52 85.1008 99.52H91.686C92.7557 99.52 93.6267 98.649 93.6267 97.5793V90.9941C93.6267 89.9244 92.7557 89.0533 91.686 89.0533Z" fill="#232323" stroke="#232323" stroke-width="2"/>
<path d="M73.0593 89.0533H66.4741C65.4044 89.0533 64.5333 89.9244 64.5333 90.9941V97.5793C64.5333 98.649 65.4044 99.52 66.4741 99.52H73.0593C74.1289 99.52 75 98.649 75 97.5793V90.9941C75 89.9244 74.1289 89.0533 73.0593 89.0533Z" fill="#232323" stroke="#232323" stroke-width="2"/>
<path d="M110.313 70.4266H103.727C102.658 70.4266 101.787 71.2977 101.787 72.3674V78.9526C101.787 80.0223 102.658 80.8933 103.727 80.8933H110.313C111.382 80.8933 112.253 80.0223 112.253 78.9526V72.3674C112.253 71.2977 111.382 70.4266 110.313 70.4266Z" fill="#232323" stroke="#232323" stroke-width="2"/>
<path d="M132.453 73H125.867C124.798 73 123.927 73.871 123.927 74.9407V81.5259C123.927 82.5956 124.798 83.4667 125.867 83.4667H132.453C133.522 83.4667 134.393 82.5956 134.393 81.5259V74.9407C134.393 73.871 133.522 73 132.453 73Z" fill="#232323" stroke="#232323" stroke-width="2"/>
<path d="M91.686 70.4266H85.1008C84.0311 70.4266 83.16 71.2977 83.16 72.3674V78.9526C83.16 80.0223 84.0311 80.8933 85.1008 80.8933H91.686C92.7557 80.8933 93.6267 80.0223 93.6267 78.9526V72.3674C93.6267 71.2977 92.7557 70.4266 91.686 70.4266Z" fill="#232323" stroke="#232323" stroke-width="2"/>
<path d="M73.0593 70.4266H66.4741C65.4044 70.4266 64.5333 71.2977 64.5333 72.3674V78.9526C64.5333 80.0223 65.4044 80.8933 66.4741 80.8933H73.0593C74.1289 80.8933 75 80.0223 75 78.9526V72.3674C75 71.2977 74.1289 70.4266 73.0593 70.4266Z" fill="#232323" stroke="#232323" stroke-width="2"/>
<path d="M123.013 18.78H116.427C115.358 18.78 114.487 19.6511 114.487 20.7208V27.306C114.487 28.3756 115.358 29.2467 116.427 29.2467H123.013C124.082 29.2467 124.953 28.3756 124.953 27.306V20.7208C124.953 19.6511 124.082 18.78 123.013 18.78Z" fill="#232323" stroke="#232323" stroke-width="2"/>
<path d="M87.4526 18.78H80.8674C79.7977 18.78 78.9266 19.6511 78.9266 20.7208V27.306C78.9266 28.3756 79.7977 29.2467 80.8674 29.2467H87.4526C88.5223 29.2467 89.3933 28.3756 89.3933 27.306V20.7208C89.3933 19.6511 88.5223 18.78 87.4526 18.78Z" fill="#232323" stroke="#232323" stroke-width="2"/>
<path d="M129.16 100.4C134.386 100.4 138.627 96.1592 138.627 90.9333C138.627 85.7074 134.386 81.4666 129.16 81.4666C123.934 81.4666 119.693 85.7074 119.693 90.9333C119.693 96.1592 123.934 100.4 129.16 100.4ZM129.16 85.1599C132.342 85.1599 134.933 87.7518 134.933 90.9333C134.933 94.1148 132.342 96.7066 129.16 96.7066C125.979 96.7066 123.387 94.1148 123.387 90.9333C123.387 87.7518 125.979 85.1599 129.16 85.1599Z" fill="#232323" stroke="#232323" stroke-width="2"/>
<path d="M129.16 101.247C134.853 101.247 139.473 96.6266 139.473 90.9333C139.473 85.2401 134.853 80.62 129.16 80.62C123.467 80.62 118.847 85.2401 118.847 90.9333C118.847 96.6266 123.467 101.247 129.16 101.247ZM129.16 84.4827C132.715 84.4827 135.611 87.3784 135.611 90.9333C135.611 94.4882 132.715 97.384 129.16 97.384C125.605 97.384 122.709 94.4882 122.709 90.9333C122.709 87.3784 125.605 84.4827 129.16 84.4827Z" fill="#232323" stroke="#232323" stroke-width="2"/>
<path d="M129.16 102.093C135.321 102.093 140.32 97.0939 140.32 90.9333C140.32 84.7727 135.321 79.7733 129.16 79.7733C122.999 79.7733 118 84.7727 118 90.9333C118 97.0939 122.999 102.093 129.16 102.093ZM129.16 83.8053C133.088 83.8053 136.288 87.005 136.288 90.9333C136.288 94.8616 133.088 98.0613 129.16 98.0613C125.232 98.0613 122.032 94.8616 122.032 90.9333C122.032 87.005 125.232 83.8053 129.16 83.8053Z" fill="#232323" stroke="#232323" stroke-width="2"/>
<path d="M129.16 98.7066C133.451 98.7066 136.933 95.2245 136.933 90.9333C136.933 86.6421 133.451 83.16 129.16 83.16C124.869 83.16 121.387 86.6421 121.387 90.9333C121.387 95.2245 124.869 98.7066 129.16 98.7066ZM129.16 86.5146C131.595 86.5146 133.579 88.4986 133.579 90.9333C133.579 93.3681 131.595 95.352 129.16 95.352C126.725 95.352 124.741 93.3681 124.741 90.9333C124.741 88.4986 126.725 86.5146 129.16 86.5146Z" fill="#232323" stroke="#232323" stroke-width="2"/>
<path d="M158.513 49.6015V49.7461L158.554 49.8848L161.991 61.5184L162.045 68.4549L158.554 80.2685L158.513 80.4072V80.5518C158.513 83.5672 161.05 85.9733 164.085 85.9733H177.801C180.836 85.9733 183.373 83.5672 183.373 80.5518V49.6015C183.373 46.5861 180.836 44.18 177.801 44.18H164.085C161.05 44.18 158.513 46.5861 158.513 49.6015ZM164.13 79.5518L164.047 68.7366L165.044 65.36L165.128 65.0767L165.044 64.7933L163.989 61.2216L163.908 50.6015H176.801V79.5518H164.13Z" fill="#232323" stroke="#232323" stroke-width="2"/>
<path d="M45.3667 80.5518V80.4072L45.3257 80.2685L41.8887 68.6349L41.8355 61.6984L45.3257 49.8848L45.3667 49.7461V49.6015C45.3667 46.5861 42.8298 44.18 39.7947 44.18H26.0787C23.0436 44.18 20.5067 46.5861 20.5067 49.6015L20.5067 80.5518C20.5067 83.5672 23.0436 85.9733 26.0787 85.9733H39.7947C42.8298 85.9733 45.3667 83.5672 45.3667 80.5518ZM39.7503 50.6015L39.8333 61.4167L38.8357 64.7933L38.752 65.0767L38.8357 65.36L39.8909 68.9317L39.9723 79.5518H27.0787L27.0787 50.6015H39.7503Z" fill="#232323" stroke="#232323" stroke-width="2"/>
</svg>
