<svg viewBox="0 0 163 145" fill="none" xmlns="http://www.w3.org/2000/svg">
<path d="M40 94.3995C62.0909 94.3995 80 80 80 80V94.4C80 106.33 62.0909 116 40 116C18.3018 116 0.64 106.672 0.0181818 95.0372L0 94.4V80C0 80 17.9091 94.3995 40 94.3995ZM40 101.6C26.4727 101.6 14.5091 97.9748 7.27273 92.42V94.4C7.27273 101.175 21.3927 108.8 40 108.8C58.2182 108.8 72.1382 101.492 72.7091 94.8248L72.7273 94.4L72.7309 92.42C65.4945 97.9712 53.5309 101.6 40 101.6Z" fill="#232323"/>
<path d="M40 123.399C62.0909 123.399 80 109 80 109V123.4C80 135.33 62.0909 145 40 145C18.3018 145 0.64 135.672 0.0181818 124.037L0 123.4V109C0 109 17.9091 123.399 40 123.399ZM40 130.6C26.4727 130.6 14.5091 126.975 7.27273 121.42V123.4C7.27273 130.175 21.3927 137.8 40 137.8C58.2182 137.8 72.1382 130.492 72.7091 123.825L72.7273 123.4L72.7309 121.42C65.4945 126.971 53.5309 130.6 40 130.6Z" fill="#232323"/>
<path d="M40 108.799C62.0909 108.799 80 94 80 94V108.8C80 121.062 62.0909 131 40 131C18.3018 131 0.64 121.413 0.0181818 109.455L0 108.8V94C0 94 17.9091 108.799 40 108.799ZM40 116.2C26.4727 116.2 14.5091 112.474 7.27273 106.765V108.8C7.27273 115.763 21.3927 123.6 40 123.6C58.2182 123.6 72.1382 116.089 72.7091 109.237L72.7273 108.8L72.7309 106.765C65.4945 112.47 53.5309 116.2 40 116.2Z" fill="#232323"/>
<path d="M40 44C62.0909 44 80 53.7368 80 65.75V80.25C80 92.2632 62.0909 102 40 102C18.3018 102 0.64 92.6076 0.0181818 80.8916L0 80.25V65.75C0 53.7368 17.9091 44 40 44ZM40 87.5C26.4727 87.5 14.5091 83.8496 7.27273 78.2562V80.25C7.27273 87.0722 21.3927 94.75 40 94.75C58.2182 94.75 72.1382 87.3913 72.7091 80.6778L72.7273 80.25L72.7309 78.2562C65.4945 83.846 53.5309 87.5 40 87.5ZM40 51.25C21.3927 51.25 7.27273 58.9278 7.27273 65.75C7.27273 72.5722 21.3927 80.25 40 80.25C58.6073 80.25 72.7273 72.5722 72.7273 65.75C72.7273 58.9278 58.6073 51.25 40 51.25Z" fill="#232323"/>
<path d="M123 50.7995C145.091 50.7995 163 36 163 36V50.8C163 63.0618 145.091 73 123 73C101.302 73 83.64 63.4133 83.0182 51.4549L83 50.8V36C83 36 100.909 50.7995 123 50.7995ZM123 58.2C109.473 58.2 97.5091 54.4741 90.2727 48.765V50.8C90.2727 57.7634 104.393 65.6 123 65.6C141.218 65.6 155.138 58.089 155.709 51.2366L155.727 50.8L155.731 48.765C148.495 54.4704 136.531 58.2 123 58.2Z" fill="#232323"/>
<path d="M123 79.7995C145.091 79.7995 163 65 163 65V79.8C163 92.0618 145.091 102 123 102C101.302 102 83.64 92.4133 83.0182 80.4549L83 79.8V65C83 65 100.909 79.7995 123 79.7995ZM123 87.2C109.473 87.2 97.5091 83.4741 90.2727 77.765V79.8C90.2727 86.7634 104.393 94.6 123 94.6C141.218 94.6 155.138 87.089 155.709 80.2366L155.727 79.8L155.731 77.765C148.495 83.4704 136.531 87.2 123 87.2Z" fill="#232323"/>
<path d="M123 123.399C145.091 123.399 163 109 163 109V123.4C163 135.33 145.091 145 123 145C101.302 145 83.64 135.672 83.0182 124.037L83 123.4V109C83 109 100.909 123.399 123 123.399ZM123 130.6C109.473 130.6 97.5091 126.975 90.2727 121.42V123.4C90.2727 130.175 104.393 137.8 123 137.8C141.218 137.8 155.138 130.492 155.709 123.825L155.727 123.4L155.731 121.42C148.495 126.971 136.531 130.6 123 130.6Z" fill="#232323"/>
<path d="M123 108.799C145.091 108.799 163 94 163 94V108.8C163 121.062 145.091 131 123 131C101.302 131 83.64 121.413 83.0182 109.455L83 108.8V94C83 94 100.909 108.799 123 108.799ZM123 116.2C109.473 116.2 97.5091 112.474 90.2727 106.765V108.8C90.2727 115.763 104.393 123.6 123 123.6C141.218 123.6 155.138 116.089 155.709 109.237L155.727 108.8L155.731 106.765C148.495 112.47 136.531 116.2 123 116.2Z" fill="#232323"/>
<path d="M123 94.3995C145.091 94.3995 163 80 163 80V94.4C163 106.33 145.091 116 123 116C101.302 116 83.64 106.672 83.0182 95.0372L83 94.4V80C83 80 100.909 94.3995 123 94.3995ZM123 101.6C109.473 101.6 97.5091 97.9748 90.2727 92.42V94.4C90.2727 101.175 104.393 108.8 123 108.8C141.218 108.8 155.138 101.492 155.709 94.8248L155.727 94.4L155.731 92.42C148.495 97.9712 136.531 101.6 123 101.6Z" fill="#232323"/>
<path d="M123 65.3995C145.091 65.3995 163 51 163 51V65.4C163 77.3304 145.091 87 123 87C101.302 87 83.64 77.6724 83.0182 66.0372L83 65.4V51C83 51 100.909 65.3995 123 65.3995ZM123 72.6C109.473 72.6 97.5091 68.9748 90.2727 63.42V65.4C90.2727 72.1752 104.393 79.8 123 79.8C141.218 79.8 155.138 72.492 155.709 65.8248L155.727 65.4L155.731 63.42C148.495 68.9712 136.531 72.6 123 72.6Z" fill="#232323"/>
<path d="M123 0C145.091 0 163 9.73675 163 21.75V36.25C163 48.2632 145.091 58 123 58C101.302 58 83.64 48.6076 83.0182 36.8916L83 36.25V21.75C83 9.73675 100.909 0 123 0ZM123 43.5C109.473 43.5 97.5091 39.8496 90.2727 34.2562V36.25C90.2727 43.0722 104.393 50.75 123 50.75C141.218 50.75 155.138 43.3913 155.709 36.6778L155.727 36.25L155.731 34.2562C148.495 39.846 136.531 43.5 123 43.5ZM123 7.25C104.393 7.25 90.2727 14.9278 90.2727 21.75C90.2727 28.5722 104.393 36.25 123 36.25C141.607 36.25 155.727 28.5722 155.727 21.75C155.727 14.9278 141.607 7.25 123 7.25Z" fill="#232323"/>
</svg>
